# xmcd
#
# Track frame offsets: 
#        150
#        18335
#        39750
#        61950
#        66672
#        73032
#
# Disc length: 1038 seconds
#
# Revision: 0
# Processed by: cddbd v1.4PL0 Copyright (c) Steve Scherf et al.
# Submitted via: ExactAudioCopy v0.90a11
#
DISCID=4f040c06
DTITLE=Lee Ann Womack - I Hope You Dance (Single)
DYEAR=1900
DGENRE=
TTITLE0=I Hope You Dance (US Pop Version)
TTITLE1=I Hope You Dance (UK Pop Version)
TTITLE2=I Hope You Dance (Album Version)
TTITLE3=Why They Call It Falling (Snippet)
TTITLE4=Ashes By Now (Snippet)
TTITLE5=After I Fall (Snippet)
EXTD=
EXTT0=
EXTT1=
EXTT2=
EXTT3=
EXTT4=
EXTT5=
PLAYORDER=
